<?xml version="1.0" encoding="UTF-8" standalone="no"?>
<!DOCTYPE svg PUBLIC "-//W3C//DTD SVG 1.1//EN" "http://www.w3.org/Graphics/SVG/1.1/DTD/svg11.dtd">
<svg width="100%" height="100%" viewBox="0 0 135 215" version="1.1" xmlns="http://www.w3.org/2000/svg" xmlns:xlink="http://www.w3.org/1999/xlink" xml:space="preserve" xmlns:serif="http://www.serif.com/" style="fill-rule:evenodd;clip-rule:evenodd;stroke-linejoin:round;stroke-miterlimit:2;">
    <g transform="matrix(1,0,0,1,-663.87214,-383.600347)">
        <g transform="matrix(1.765538,0,0,1.765538,413.818438,66.249455)">
            <path d="M182.502,301.047C179.257,300.997 174.391,300.966 173.415,300.593C167.906,298.49 176.085,300.279 180.306,296.296C196.608,280.91 165.13,260.246 158.5,284.5C157.437,288.39 148.514,278.064 145.806,271.379C134.483,243.438 161.458,225.558 167.15,220.135C184.62,203.49 176.679,186.69 175.893,185.325C175.73,185.041 170.72,176.336 175.602,181.245C184.872,190.567 187.732,194.749 190.265,200.604C198.052,218.608 194.693,225.072 192.866,231.603C187.422,251.064 201.116,249.119 204.201,242.389C204.978,240.695 202.186,233.843 205.473,237.542C231.568,266.914 212.652,299.247 182.502,301.047Z" style="fill:rgb(1,1,1);"/>
        </g>
        <g transform="matrix(1.765538,0,0,1.765538,413.818438,66.249455)">
            <path d="M142.875,284.412C141.76,277.397 141.118,277.255 142.15,276.085C142.94,275.188 143.343,275.273 143.69,276.36C147.615,288.676 150.109,287.833 156.317,291.749C159.698,293.881 150.993,293.994 150.494,294C144.259,294.081 144.094,288.04 142.875,284.412Z" style="fill:rgb(12,12,12);"/>
        </g>
    </g>
</svg>
