<?xml version="1.0" encoding="UTF-8" standalone="no"?>
<!DOCTYPE svg PUBLIC "-//W3C//DTD SVG 1.1//EN" "http://www.w3.org/Graphics/SVG/1.1/DTD/svg11.dtd">
<svg width="100%" height="100%" viewBox="0 0 178 224" version="1.1" xmlns="http://www.w3.org/2000/svg" xmlns:xlink="http://www.w3.org/1999/xlink" xml:space="preserve" xmlns:serif="http://www.serif.com/" style="fill-rule:evenodd;clip-rule:evenodd;stroke-linejoin:round;stroke-miterlimit:2;">
    <g transform="matrix(1,0,0,1,-943.115343,-84.138272)">
        <g transform="matrix(1.765538,0,0,1.765538,413.818438,66.249455)">
            <path d="M376.044,88.447C373.148,114.198 373.464,114.386 372.027,116.099C369.846,118.698 353.715,134.501 352.103,136.08C349.84,138.297 349.081,136.563 330.242,117.764C325.776,113.308 327.816,112.31 323.871,82.446C323.794,81.861 320.042,48.591 320.277,47.449C320.44,46.652 348.671,9.943 350.565,10.133C351.545,10.231 364.305,26.928 370.926,35.151C377.279,43.042 380.65,46.031 380.274,49.476C379.448,57.057 379.379,56.969 378.651,64.515C377.53,76.129 376.275,86.535 376.044,88.447Z" style="fill:rgb(1,1,1);"/>
        </g>
        <g transform="matrix(1.765538,0,0,1.765538,413.818438,66.249455)">
            <path d="M381.086,97.438C382.632,85.765 383.161,77.411 384.009,73.369C384.423,71.396 389.368,68.024 390.572,69.449C391.087,70.058 399.496,105.435 400.242,108.572C401.364,113.294 399.72,113.131 395.377,115.253C371.031,127.153 369.353,129.373 368.51,129.371C364.924,129.365 368.573,127.683 375.287,121.286C378.611,118.119 378.913,117.84 381.086,97.438Z" style="fill:rgb(4,4,4);"/>
        </g>
        <g transform="matrix(1.765538,0,0,1.765538,413.818438,66.249455)">
            <path d="M317.915,84.465C321.792,113.449 318.672,115.118 326.063,121.951C328.694,124.384 328.678,124.301 331.396,126.596C331.533,126.712 336.061,131.469 330.456,128.639C328.505,127.654 328.727,127.296 306.341,115.802C305.777,115.513 299.333,113.105 299.82,110.559C300.377,107.645 300.729,107.77 308.688,74.551C309.846,69.716 309.598,69.498 310.285,69.17C312.056,68.321 316.344,72.063 316.629,73.464C317.186,76.192 317.052,76.14 317.915,84.465Z" style="fill:rgb(3,3,3);"/>
        </g>
    </g>
</svg>
