<?xml version="1.0" encoding="UTF-8" standalone="no"?>
<!DOCTYPE svg PUBLIC "-//W3C//DTD SVG 1.1//EN" "http://www.w3.org/Graphics/SVG/1.1/DTD/svg11.dtd">
<svg width="100%" height="100%" viewBox="0 0 1305 1137" version="1.1" xmlns="http://www.w3.org/2000/svg" xmlns:xlink="http://www.w3.org/1999/xlink" xml:space="preserve" xmlns:serif="http://www.serif.com/" style="fill-rule:evenodd;clip-rule:evenodd;stroke-linejoin:round;stroke-miterlimit:2;">
    <g transform="matrix(1,0,0,1,-348.109815,-431.795052)">
        <g id="image_2026021321105-AM_a3abcb8c623ced996b6fb4a957c4c27e.JPEG" serif:id="image_2026021321105 AM_a3abcb8c623ced996b6fb4a957c4c27e.JPEG" transform="matrix(1.953125,0,0,1.953125,0,0)">
            <path d="M620.183,353.489C615.089,337.014 611.729,297.88 608.308,276.51C607.69,272.648 615.466,277.313 619.695,279.041C679.291,303.38 700.982,311.241 702.366,314.568C705.583,322.299 704.525,322.568 736.668,413.461C737.283,415.198 737.259,416.152 735.481,415.632C732.57,414.781 706.837,402.946 704.362,401.808C701.679,400.574 671.43,386.662 670.606,386.875C669.14,387.253 670.551,387.945 677.513,404.495C681.425,413.796 683.469,412.091 692.501,416.498C695.112,417.772 713.852,426.037 762.391,449.718C769.671,453.27 773.985,454.968 774.583,458.484C774.87,460.171 790.844,569.697 791.003,571.538C791.228,574.15 790.691,574.304 747.073,627.129C709.703,672.386 706.494,676.332 706.519,679.5C706.758,709.087 706.647,763.236 706.574,763.519C706.155,765.131 705.371,764.65 677.5,764.742C651.458,764.827 377.465,764.471 324.505,764.877C323.967,764.881 318.274,764.924 317.796,764.279C316.999,763.205 317.538,748.499 317.362,720.501C317.095,677.844 318.047,677.499 316.056,674.842C312.592,670.22 259.313,605.489 251.426,596.565C249.893,594.83 234.196,577.07 232.871,574.358C232.424,573.443 246.144,474.432 247.69,472.64C250.156,469.783 286.913,455.157 297.364,450.2C306.418,445.906 335.329,435.179 337.048,432.229C337.137,432.075 346.734,411.547 346.732,411.447C346.691,409.836 345.533,410.586 327.591,417.723C283.667,435.195 280.354,438.15 281.372,434.49C283.175,428.004 284.499,428.476 307.55,354.515C308.58,351.21 319.613,315.812 321.602,313.589C324.879,309.928 400.076,281.246 408.35,277.024C408.526,276.934 410.996,275.673 410.783,277.455C410.298,281.513 409.902,281.415 400.421,327.483C393.694,360.173 391.066,359.514 390.937,362.406C390.837,364.647 392.465,362.688 412.804,344.862C416.483,341.638 415.785,340.996 429.227,280.438C433.567,260.885 433.054,255.527 438.681,252.901C444.165,250.342 444.289,250.643 507.695,221.93C511.805,220.068 512.264,220.392 537.718,232.002C583.665,252.958 585.824,252.871 586.646,257.469C588.551,268.125 595.955,332.952 597.956,336.191C599.744,339.085 612.224,347.156 618.375,353.827C618.78,354.266 618.823,353.988 619.44,354.209L620.183,353.489ZM367.502,538.246C363.582,538.24 321.527,538.181 318.497,538.459C316.081,538.68 315.164,540.341 303.248,551.224C303.05,551.404 299.546,554.605 302.503,554.481C315.989,553.914 315.887,554.467 368.477,555.674C371.415,556.526 370.589,557.416 370.562,560.5C370.436,575.06 369.663,664.196 370.288,742.504C370.322,746.705 372.341,745.101 376.504,745.098C571.397,744.941 652.425,745.715 653.543,744.544C653.566,744.52 654.014,744.524 654.055,707.498C654.22,558.4 652.837,557.29 655.544,555.679C656.501,555.669 664.263,555.589 667.5,555.522C718.195,554.472 718.144,554.833 722.542,554.603C725.576,554.445 718.525,549.297 709.104,539.891C706.733,537.524 706.115,538.695 656.509,538.064C655.805,537.92 655.069,537.973 654.365,537.83C651.377,537.221 632.138,487.708 623.203,464.612C614.621,442.429 616.513,440.727 608.76,436.081C599.695,430.649 514.563,376.084 513.444,375.622C511.222,374.705 510.897,375.289 473.24,399.087C418.393,433.748 418.581,433.988 413.811,436.995C406.2,441.793 409.727,448.182 376.233,526.389C372.036,536.188 372.846,537.96 367.502,538.246Z" style="fill:rgb(31,32,35);"/>
            <path d="M477.527,476.518L478.545,476.227C478.599,476.25 479.5,475.5 479.403,477.516C479.362,478.373 477.119,486.781 482.057,481.08C484.985,477.699 484.052,475.216 494.879,465.938C502.504,459.404 505.762,457.001 507.074,446.225C507.774,440.473 513.057,452.117 507.076,462.263C504.287,466.994 496.305,477.062 501.598,473.932C520.142,462.968 535.613,458.193 537.602,439.53C538.408,431.977 548.656,451.968 528.319,471.321C523.181,476.211 514.576,482.744 523.468,479.394C555.675,467.261 580.393,482.113 568.563,480.9C559.148,479.934 548.748,485.054 551.774,486.121C563.073,490.106 577.138,489.583 591.735,506.442C596.046,511.422 589.451,504.855 578.463,503.948C562.549,502.636 588.633,512.375 595.123,530.634C595.354,531.285 600.394,545.465 595.764,539.243C593.527,536.237 594.62,534.098 583.421,529.966C579.601,528.557 582.396,531.614 583.75,535.412C589.665,551.991 591.519,552.144 588.317,569.434C586.923,576.958 586.035,564.744 585.077,562.698C583.215,558.722 577.572,553.44 577.226,556.392C575.738,569.056 580.59,572.143 565.904,589.988C565.724,590.207 563.157,593.326 562.685,591.475C562.31,590.007 565.956,588.075 563.644,576.451C563.099,573.709 561.754,574.892 560.058,577.149C558.47,579.26 554.097,589.714 535.376,602.133C530.804,605.166 537.137,598.868 539.787,588.546C542.19,579.191 510.997,606.058 509.504,606.514C507.228,607.209 507.838,605.672 507.893,605.532C508.217,604.716 514.246,593.5 511.52,593.832C505.475,594.569 498.794,599.251 497.81,599.94C484.941,608.958 486.052,614.062 483.927,611.411C483.745,611.184 485.463,604.618 485.843,603.609C486.889,600.837 488.135,600.199 486.455,599.822C486.212,599.767 475.745,604.755 472.862,606.978C446.861,627.024 464.907,659.774 504.303,638.139C512.689,633.533 552.451,605.527 584.226,624.956C623.117,648.736 607.265,714.391 537.494,715.066C504.257,715.388 470.627,698.57 445.282,717.112C436.239,723.727 450.76,699.327 485.502,699.383C497.373,699.402 558.787,710.152 575.16,677.341C583.656,660.312 570.224,629.971 528.806,657.961C525.23,660.377 486.621,692.555 447.668,672.18C410.665,652.825 402.733,585.757 479.532,565.625C505.636,558.782 545.84,556.876 544.858,528.479C544.106,506.732 511.452,506.371 521.5,511.5C526.059,513.826 516.056,524.23 503.527,524.902C503.286,524.915 478.205,522.833 468.802,538.662C463.826,547.039 477.292,551.096 478.523,551.467C479.99,551.909 479.667,554.045 476.531,553.208C460.572,548.947 451.422,530.767 459.541,532.207C463.42,532.895 463.694,533.394 466.837,530.888C476.881,521.599 477.607,522.638 482.165,520.098C487.647,517.043 474.695,518.56 461.215,526.215C457.542,530.115 448.804,525.849 451.481,533.503C453.936,540.522 447.386,532.667 447.365,532.647C446.376,531.732 437.862,523.853 440.203,517.401C443.424,508.521 449.135,514.448 456.238,510.068C466.269,503.882 467.521,503.418 466.022,498.649C462.974,488.955 472.866,489.947 477.527,476.518ZM491.479,497.485C493.508,494.962 493.426,494.778 493.313,494.524C492.837,493.455 492.499,494.091 489.561,494.789C475.886,498.038 479.449,502.856 480.426,502.9C486.867,503.186 490.859,498.251 491.479,497.485ZM447.942,518.541C448.255,518.78 448.067,519.398 448.38,519.638C449.931,520.826 451.379,517.48 449.553,517.272C449.39,517.253 449.436,517.364 447.942,518.541Z" style="fill:rgb(207,40,21);"/>
            <path d="M794.351,599.381C796.451,596.537 797.349,595.16 798.535,595.238C799.686,595.314 804.57,601.236 806.646,603.356C813.132,609.98 830.471,628.088 833.358,631.614C834.399,632.885 834.511,633.064 843.648,732.488C846.424,762.698 847.408,764.39 844.514,764.63C842.91,764.762 772.741,764.724 766.5,764.72C727.424,764.699 725.476,765.659 725.458,762.5C725.422,756.26 725.043,689.873 725.496,684.5C725.853,680.264 781.81,615.748 794.351,599.381Z" style="fill:rgb(31,32,35);"/>
            <path d="M298.517,745.5C298.63,763.624 298.846,764.814 296.527,764.848C241.011,765.67 241.082,764.197 185.504,764.806C184.938,764.812 178.773,764.88 178.435,764.598C177.801,764.07 178.123,763.807 187.409,654.493C189.296,632.287 189.53,632.063 191.792,629.796C204.484,617.076 218.789,601.607 221.093,599.115C221.209,598.989 221.13,599 222.434,597.446C226.168,592.998 226.988,598.424 237.67,610.345C259.58,634.797 282.931,664.654 295,677.959C299.258,682.653 298.383,683.481 298.451,702.501C298.581,738.397 298.548,742.06 298.517,745.5Z" style="fill:rgb(31,32,35);"/>
            <path d="M703.692,789.295C713.266,798.24 719.402,802.723 715.553,802.733C694.269,802.787 694.313,801.89 449.5,802.449C438.149,802.475 307.996,802.772 307.614,802.362C306.353,801.005 308.007,800.98 323.744,785.743C328.37,781.265 329.298,782.799 361.5,782.687C377.049,782.633 687.698,782.741 690.503,782.677C698.285,782.5 698.09,783.759 703.692,789.295Z" style="fill:rgb(31,32,35);"/>
        </g>
    </g>
</svg>
