<?xml version="1.0" encoding="UTF-8" standalone="no"?>
<!DOCTYPE svg PUBLIC "-//W3C//DTD SVG 1.1//EN" "http://www.w3.org/Graphics/SVG/1.1/DTD/svg11.dtd">
<svg width="100%" height="100%" viewBox="0 0 127 210" version="1.1" xmlns="http://www.w3.org/2000/svg" xmlns:xlink="http://www.w3.org/1999/xlink" xml:space="preserve" xmlns:serif="http://www.serif.com/" style="fill-rule:evenodd;clip-rule:evenodd;stroke-linejoin:round;stroke-miterlimit:2;">
    <g transform="matrix(1,0,0,1,-668.385241,-1598.604477)">
        <g transform="matrix(1.765538,0,0,1.765538,413.818438,66.249455)">
            <path d="M216.061,946.546C216.162,957.377 216.114,957.447 211.739,968.694C209.904,973.411 209.615,966.726 209.604,966.48C209.326,960.041 200.993,946.814 201.184,952.489C201.205,953.113 207.201,959.787 202.133,972.331C190.526,1001.062 133.701,984.154 145.89,938.608C151.728,916.791 178.362,867.166 180.275,867.934C182.25,868.728 180.886,869.786 190.928,892.318C194.048,899.319 185.789,895.883 178.986,906.794C167.796,924.741 185.779,945.414 185.06,939.439C184.89,938.022 172.83,927.174 183.739,914.709C187.933,909.917 198.444,906.866 200.521,910.485C214.826,935.406 214.21,935.82 216.061,946.546Z" style="fill:rgb(1,1,1);"/>
        </g>
    </g>
</svg>
