<?xml version="1.0" encoding="UTF-8" standalone="no"?>
<!DOCTYPE svg PUBLIC "-//W3C//DTD SVG 1.1//EN" "http://www.w3.org/Graphics/SVG/1.1/DTD/svg11.dtd">
<svg width="100%" height="100%" viewBox="0 0 240 238" version="1.1" xmlns="http://www.w3.org/2000/svg" xmlns:xlink="http://www.w3.org/1999/xlink" xml:space="preserve" xmlns:serif="http://www.serif.com/" style="fill-rule:evenodd;clip-rule:evenodd;stroke-linejoin:round;stroke-miterlimit:2;">
    <g transform="matrix(1,0,0,1,-612.058663,-1283.658045)">
        <g transform="matrix(1.765538,0,0,1.765538,413.818438,66.249455)">
            <path d="M180.985,782.855C182.032,774.941 182.107,767.23 185.115,770.891C188.299,774.764 190.54,776.962 192.256,781.581C196.153,792.067 180.395,824.063 180.349,824.088C179.187,824.735 178.21,820.73 178.174,820.647C160.091,779.854 169.435,777.703 175.113,771.046C179.791,765.562 178.073,784.968 179.794,785.037C180.086,785.049 180.253,784.573 180.545,784.585C180.993,783.76 181.045,783.825 180.985,782.855Z" style="fill:rgb(3,3,3);"/>
        </g>
        <g transform="matrix(1.765538,0,0,1.765538,413.818438,66.249455)">
            <path d="M182.113,739.549C181.216,730.357 181.487,730.355 181.163,729.626C179.287,725.412 178.685,735.935 178.651,736.521C178.207,744.295 176.129,743.627 175.698,743.23C161.679,730.284 169.352,715.923 171.066,711.337C172.573,707.302 178.512,689.202 180.482,689.544C180.61,689.567 190.325,709.719 193.002,725.565C194.191,732.608 185.676,743.525 183.51,743.45C181.996,743.397 182.657,742.617 182.113,739.549Z" style="fill:rgb(3,3,3);"/>
        </g>
        <g transform="matrix(1.765538,0,0,1.765538,413.818438,66.249455)">
            <path d="M140.605,745.803C142.42,745.332 142.304,745.022 147.596,743.989C157.191,742.116 166.992,751.915 166.747,753.613C166.535,755.077 153.564,755.028 152.676,756.555C151.399,758.75 170.181,757.783 166.365,761.39C154.155,772.934 150.106,772.472 113.339,757.676C113.189,757.615 110.881,756.686 113.602,755.669C127.089,750.63 126.829,750.179 140.605,745.803Z" style="fill:rgb(3,3,3);"/>
        </g>
        <g transform="matrix(1.765538,0,0,1.765538,413.818438,66.249455)">
            <path d="M232.643,750.136C245.527,755.889 250.339,756.367 246.266,758.006C207.79,773.483 205.095,771.535 195.363,762.644C192.205,759.758 194.071,759.262 194.353,759.208C196.533,758.797 210.573,757.913 207.298,755.86C206.73,755.503 193.687,755.087 193.551,753.484C193.406,751.767 201.751,744.067 209.502,743.683C213.439,743.487 230.826,749.507 232.643,750.136Z" style="fill:rgb(4,4,4);"/>
        </g>
        <g transform="matrix(1.765538,0,0,1.765538,413.818438,66.249455)">
            <path d="M142.048,724.64C141.925,724.105 140.486,717.878 142.508,717.784C156.036,717.155 165.372,738.142 158.532,737.048C144.998,734.886 142.643,726.22 142.048,724.64Z" style="fill:rgb(4,4,4);"/>
        </g>
        <g transform="matrix(1.765538,0,0,1.765538,413.818438,66.249455)">
            <path d="M142.145,789.396C143.081,787.243 143.968,782.709 150.557,778.599C152.478,777.401 161.066,774.478 160.411,778.493C157.395,796.966 142.171,795.872 141.593,795.377C140.131,794.125 141.136,793.828 142.145,789.396Z" style="fill:rgb(4,4,4);"/>
        </g>
        <g transform="matrix(1.765538,0,0,1.765538,413.818438,66.249455)">
            <path d="M200.072,779.582C200.064,779.203 199.846,778.848 199.837,778.469C199.726,773.545 217.247,777.34 219.04,793.552C219.107,794.158 219.505,797.766 211.478,794.556C201.714,790.651 200.754,782.031 200.072,779.582Z" style="fill:rgb(4,4,4);"/>
        </g>
        <g transform="matrix(1.765538,0,0,1.765538,413.818438,66.249455)">
            <path d="M199.917,733.57C201.839,726.918 202.924,720.795 216.563,717.926C222.23,716.734 218.6,732.369 206.352,736.005C201.974,737.306 199.95,738.175 199.917,733.57Z" style="fill:rgb(4,4,4);"/>
        </g>
    </g>
</svg>
