<?xml version="1.0" encoding="UTF-8" standalone="no"?>
<!DOCTYPE svg PUBLIC "-//W3C//DTD SVG 1.1//EN" "http://www.w3.org/Graphics/SVG/1.1/DTD/svg11.dtd">
<svg width="100%" height="100%" viewBox="0 0 207 234" version="1.1" xmlns="http://www.w3.org/2000/svg" xmlns:xlink="http://www.w3.org/1999/xlink" xml:space="preserve" xmlns:serif="http://www.serif.com/" style="fill-rule:evenodd;clip-rule:evenodd;stroke-linejoin:round;stroke-miterlimit:2;">
    <g transform="matrix(1,0,0,1,-628.211182,-677.184824)">
        <g transform="matrix(1.765538,0,0,1.765538,413.818438,66.249455)">
            <path d="M218.996,477.586C241.585,444.948 215.336,412.96 211.496,413.481C209.075,413.809 198.727,423.474 202.789,415.61C204.573,412.156 207.009,408.37 204.33,406.772C196.439,402.066 186.345,398.91 184.896,401.742C181.171,409.022 180.421,415.412 178.259,409.612C174.829,400.408 173.359,400.515 172.504,400.577C170.907,400.692 152.356,404.897 154.842,410.35C154.899,410.473 160.638,420.914 156.575,418.324C152.095,415.467 150.147,410.099 144.549,416.543C129.666,433.676 128.568,460.018 140.127,475.721C141.789,477.98 139.726,478.631 138.627,477.344C101.696,434.076 135.735,401.029 135.82,398.514C135.918,395.609 120.091,376.786 126.44,380.622C127.063,380.999 139.738,394.822 142.232,393.072C153.271,385.326 152.972,384.305 171.598,379.911C173.097,379.557 174.251,379.285 177.027,361.434C179.195,347.498 178.356,344.763 180.502,346.498C180.699,346.657 183.358,363.961 183.592,365.482C184.612,372.122 185.239,379.201 187.433,379.711C199.132,382.426 204.485,382.549 217.91,393.003C221.401,395.722 232.45,380.222 233.023,383.598C233.32,385.345 222.621,396.338 224.631,399.419C225.352,400.524 242.47,417.734 237.66,446.524C237.2,449.279 234.669,464.43 221.477,477.468C220.382,478.549 220.206,478.248 218.996,477.586Z" style="fill:rgb(3,3,3);"/>
        </g>
        <g transform="matrix(1.765538,0,0,1.765538,413.818438,66.249455)">
            <path d="M158.877,450.514C163.107,422.283 193.06,426.076 200.069,443.682C210.784,470.596 162.657,488.98 158.877,450.514Z" style="fill:rgb(1,1,1);"/>
        </g>
    </g>
</svg>
