<?xml version="1.0" encoding="UTF-8" standalone="no"?>
<!DOCTYPE svg PUBLIC "-//W3C//DTD SVG 1.1//EN" "http://www.w3.org/Graphics/SVG/1.1/DTD/svg11.dtd">
<svg width="100%" height="100%" viewBox="0 0 163 208" version="1.1" xmlns="http://www.w3.org/2000/svg" xmlns:xlink="http://www.w3.org/1999/xlink" xml:space="preserve" xmlns:serif="http://www.serif.com/" style="fill-rule:evenodd;clip-rule:evenodd;stroke-linejoin:round;stroke-miterlimit:2;">
    <g transform="matrix(1,0,0,1,-950.953709,-387.157467)">
        <g transform="matrix(1.765538,0,0,1.765538,413.818438,66.249455)">
            <path d="M386.117,249.574C387.607,258.322 387.705,258.229 390.376,271.499C391.455,276.859 385.855,267.909 379.035,258.847C371.051,248.238 370.328,247.223 368.743,248.774C362.387,254.993 363.409,255.749 358.361,272.456C350.674,297.893 351.874,299.972 349.77,299.186C348.788,298.82 349.873,298.297 346.401,286.532C338.113,258.457 340.252,257.066 332.18,248.829C330.234,246.843 329.384,248.634 317.098,265.214C316.045,266.634 309.599,276.416 310.522,271.497C311.092,268.461 317.366,235.032 316.878,233.411C316.759,233.017 308.765,211.697 305.101,204.575C304.994,204.368 303.008,200.507 305.43,201.674C307.729,202.783 306.709,203.943 337.102,233.905C347.245,243.904 349.517,248.167 352.363,245.36C391.741,206.515 391.03,205.832 394.509,202.513C399.358,197.888 392.416,211.572 389.732,218.593C384.291,232.825 383.274,232.803 384.427,239.512C385.766,247.304 385.783,247.229 386.117,249.574Z" style="fill:rgb(3,3,3);"/>
        </g>
        <g transform="matrix(1.765538,0,0,1.765538,413.818438,66.249455)">
            <path d="M352.88,188.379C363.318,219.706 364.052,220.191 362.211,222.238C351.627,234.007 350.853,233.775 349.698,233.123C349.179,232.829 338.237,221.894 337.871,221.28C336.445,218.882 344.162,202.875 349.512,182.509C350.377,179.215 352.738,187.857 352.88,188.379Z" style="fill:rgb(3,3,3);"/>
        </g>
    </g>
</svg>
